<svg width="21" height="21" viewBox="0 0 21 21" fill="none" xmlns="http://www.w3.org/2000/svg">
    <path d="M4.37682 0C1.96342 0 0 1.97267 0 4.39736C0 6.82205 1.96346 8.79472 4.37682 8.79472C6.79018 8.79472 8.75364 6.82205 8.75364 4.39736C8.75364 1.97267 6.79022 0 4.37682 0ZM4.37682 7.0358C2.92897 7.0358 1.75071 5.85201 1.75071 4.39736C1.75071 2.94271 2.92897 1.75893 4.37682 1.75893C5.82553 1.75893 7.00293 2.94271 7.00293 4.39736C7.00293 5.85201 5.82467 7.0358 4.37682 7.0358Z" transform="translate(6.11877 6.15527)" fill="#293238"/>
    <path d="M20.2489 7.9249L17.7603 7.52209L19.2484 5.5345C19.5092 5.18534 19.4768 4.69814 19.1722 4.38768L16.6853 1.85391C16.3772 1.53904 15.887 1.50298 15.5377 1.76684L13.5042 3.20216L13.1103 0.739645C13.042 0.3131 12.6761 0 12.2463 0H8.74486C8.30894 0 7.93952 0.321877 7.87824 0.754604L7.46858 3.24704L5.44564 1.76066C5.09636 1.50385 4.61582 1.54077 4.31029 1.84773L1.83303 4.32784C1.52316 4.6374 1.48899 5.12905 1.75161 5.47994L3.20209 7.51946L0.751078 7.87125C0.320373 7.93282 0 8.30398 0 8.74194V12.2598C0 12.6978 0.320373 13.069 0.751078 13.1287L3.23974 13.5316L1.75161 15.5192C1.48899 15.8701 1.52316 16.3599 1.83217 16.6704L4.30943 19.1593C4.61844 19.4715 5.1069 19.5032 5.45528 19.2402L7.48437 17.7829L7.83452 20.2454C7.89579 20.6781 8.26518 21 8.70114 21H12.2026C12.6385 21 13.0079 20.679 13.0692 20.248L13.4701 17.7477L15.4485 19.2428C15.7986 19.5067 16.2862 19.4732 16.5943 19.1619L19.0716 16.673C19.3806 16.3626 19.4147 15.8718 19.1521 15.5218L17.6788 13.4858L20.2262 13.1868C20.6674 13.1358 21 12.7603 21 12.3135V8.79559C21 8.35759 20.6796 7.98647 20.2489 7.9249ZM19.2502 11.5299L17.4636 11.7392C16.8132 11.8245 16.2695 12.2625 16.0673 12.8271C15.8135 13.404 15.8879 14.0786 16.2661 14.5913L17.2972 15.9677L15.8949 17.3766L14.5188 16.3362C14.012 15.9598 13.3406 15.885 12.8232 16.1198C12.207 16.3441 11.7711 16.8903 11.6861 17.534L11.4445 19.2411H9.46095L9.21847 17.5446C9.13356 16.8911 8.69761 16.345 8.13652 16.1427C7.56316 15.8877 6.8935 15.9607 6.37965 16.3415L5.00969 17.3775L3.60737 15.9686L4.64293 14.586C5.0167 14.0786 5.09111 13.4049 4.85826 12.8825C4.63415 12.2633 4.09143 11.8245 3.44978 11.74L1.75071 11.4973V9.50441L3.44014 9.26079C4.09053 9.17549 4.63415 8.73749 4.8355 8.17376C5.09024 7.59685 5.0158 6.92404 4.63854 6.40865L3.60823 5.03316L5.01494 3.62426L6.43039 4.66381C6.93636 5.04021 7.60602 5.11237 8.12597 4.88016C8.7431 4.655 9.17815 4.10709 9.26133 3.46598L9.50381 1.75802H11.5005L11.7719 3.45365C11.8559 4.108 12.291 4.655 12.8547 4.85906C13.4281 5.11237 14.0986 5.04021 14.608 4.66118L15.9754 3.63394L17.3978 5.08154L16.3588 6.46848C15.985 6.97596 15.9106 7.64963 16.1435 8.17289C16.3676 8.79291 16.9129 9.23001 17.551 9.31358L19.2501 9.5572V11.5299H19.2502Z" fill="#293238"/>
</svg>